<svg height="456pt" viewBox="0 -41 456.066 456" width="456pt" xmlns="http://www.w3.org/2000/svg"><path d="m406.066406.03125h-119.089844c-5.851562 0-11.660156 1.027344-17.160156 3.039062l-31.484375 11.503907c-6.648437 2.425781-13.941406 2.425781-20.589843 0l-31.492188-11.503907c-5.5-2.011718-11.308594-3.039062-17.160156-3.039062h-119.089844c-27.601562.03125-49.96875 22.402344-50 50v257.058594c.03125 27.597656 22.398438 49.964844 50 50h119.089844c3.511718-.003906 7 .613281 10.300781 1.820312l31.488281 11.503906c11.082032 4.042969 23.234375 4.042969 34.316406 0l31.488282-11.503906c3.300781-1.207031 6.789062-1.824218 10.300781-1.820312h119.082031c27.601563-.035156 49.96875-22.402344 50-50v-257.058594c-.03125-27.601562-22.398437-49.96875-50-50zm-219.820312 340.085938c-5.496094-2.011719-11.304688-3.039063-17.15625-3.035157h-119.089844c-16.5625-.019531-29.980469-13.4375-30-30v-257.050781c.019531-16.558594 13.4375-29.980469 30-30h119.089844c3.511718 0 7 .617188 10.300781 1.824219l31.488281 11.5c2.332032.847656 4.722656 1.523437 7.152344 2.015625v316.351562c-.097656-.035156-.199219-.0625-.296875-.097656zm249.820312-33.027344c-.019531 16.558594-13.441406 29.980468-30 30h-119.089844c-5.851562-.003906-11.660156 1.023437-17.160156 3.035156l-31.488281 11.5c-.097656.035156-.199219.066406-.300781.101562v-316.351562c2.433594-.492188 4.828125-1.164062 7.160156-2.015625l31.492188-11.503906c3.296874-1.207031 6.785156-1.824219 10.296874-1.820313h119.089844c16.558594.019532 29.980469 13.4375 30 30zm0 0" fill="#333330"/><path d="m57.152344 110.757812h79.015625c5.523437 0 10-4.476562 10-10 0-5.523437-4.476563-10-10-10h-79.015625c-5.523438 0-10 4.476563-10 10 0 5.523438 4.476562 10 10 10zm0 0" fill="#333330"/><path d="m176.167969 142.625h-119.015625c-5.523438 0-10 4.476562-10 10s4.476562 10 10 10h119.015625c5.523437 0 10-4.476562 10-10s-4.476563-10-10-10zm0 0" fill="#333330"/><path d="m176.167969 194.488281h-119.015625c-5.523438 0-10 4.476563-10 10 0 5.523438 4.476562 10 10 10h119.015625c5.523437 0 10-4.476562 10-10 0-5.523437-4.476563-10-10-10zm0 0" fill="#333330"/><path d="m176.167969 246.355469h-119.015625c-5.523438 0-10 4.480469-10 10 0 5.523437 4.476562 10 10 10h119.015625c5.523437 0 10-4.476563 10-10 0-5.519531-4.476563-10-10-10zm0 0" fill="#333330"/></svg>