<svg height="442pt" viewBox="0 -24 442 442" width="442pt" xmlns="http://www.w3.org/2000/svg"><path d="m392 0h-342c-27.601562.03125-49.96875 22.398438-50 50v199.507812c.03125 27.601563 22.398438 49.96875 50 50h19.609375c16.5625.019532 29.980469 13.4375 30 30v55.375c0 3.78125 2.136719 7.242188 5.519531 8.9375 3.386719 1.695313 7.4375 1.335938 10.46875-.929687l116.957032-87.414063c5.191406-3.863281 11.488281-5.957031 17.960937-5.96875h141.484375c27.601562-.03125 49.96875-22.398437 50-50v-199.507812c-.03125-27.601562-22.398438-49.96875-50-50zm30 249.507812c-.019531 16.558594-13.4375 29.980469-30 30h-141.484375c-10.789063.019532-21.28125 3.507813-29.9375 9.949219l-100.96875 75.464844v-35.417969c-.03125-27.601562-22.398437-49.96875-50-50h-19.609375c-16.5625-.019531-29.980469-13.4375-30-30v-199.503906c.019531-16.5625 13.4375-29.980469 30-30h342c16.5625.019531 29.980469 13.4375 30 30zm0 0" fill="#333330"/><path d="m103.050781 107.371094c-25.539062 0-46.242187 20.707031-46.238281 46.246094 0 25.539062 20.707031 46.242187 46.246094 46.242187 25.539062-.003906 46.242187-20.707031 46.242187-46.246094-.03125-25.527343-20.71875-46.214843-46.25-46.242187zm0 72.484375c-14.492187 0-26.242187-11.75-26.238281-26.246094 0-14.492187 11.75-26.242187 26.246094-26.242187 14.492187.003906 26.242187 11.753906 26.242187 26.246093-.015625 14.488281-11.761719 26.230469-26.25 26.242188zm0 0" fill="#333330"/><path d="m219.898438 107.371094c-25.539063 0-46.242188 20.703125-46.242188 46.242187 0 25.539063 20.703125 46.246094 46.242188 46.246094 25.542968 0 46.246093-20.707031 46.246093-46.246094-.03125-25.527343-20.71875-46.210937-46.246093-46.242187zm0 72.484375c-14.492188 0-26.242188-11.75-26.242188-26.242188 0-14.496093 11.75-26.246093 26.242188-26.246093 14.496093 0 26.246093 11.75 26.246093 26.246093-.015625 14.488281-11.757812 26.226563-26.246093 26.242188zm0 0" fill="#333330"/><path d="m336.757812 107.371094c-25.542968 0-46.246093 20.703125-46.246093 46.242187 0 25.539063 20.703125 46.246094 46.246093 46.246094 25.539063 0 46.242188-20.707031 46.242188-46.246094-.03125-25.527343-20.71875-46.210937-46.242188-46.242187zm0 72.484375c-14.496093 0-26.246093-11.75-26.246093-26.242188 0-14.496093 11.75-26.246093 26.246093-26.246093 14.492188 0 26.242188 11.75 26.242188 26.246093-.015625 14.488281-11.757812 26.226563-26.242188 26.242188zm0 0" fill="#333330"/></svg>